<svg width="24" height="24" viewBox="0 0 24 24" fill="none" xmlns="http://www.w3.org/2000/svg">
<path fill-rule="evenodd" clip-rule="evenodd" d="M9.91717 4H14.0828C14.9645 3.99999 15.6756 3.99999 16.2511 4.04778C16.8437 4.097 17.3639 4.201 17.8439 4.45035C18.5745 4.82985 19.1702 5.42553 19.5497 6.1561C19.799 6.63611 19.903 7.15628 19.9522 7.74893C20 8.32445 20 9.03555 20 9.91719V14.0828C20 14.9644 20 15.6755 19.9522 16.2511C19.903 16.8437 19.799 17.3639 19.5497 17.8439C19.1702 18.5745 18.5745 19.1702 17.8439 19.5497C17.3639 19.799 16.8437 19.903 16.2511 19.9522C15.6755 20 14.9645 20 14.0828 20H9.91719C9.03555 20 8.32445 20 7.74893 19.9522C7.15628 19.903 6.63611 19.799 6.1561 19.5497C5.42553 19.1702 4.82985 18.5745 4.45035 17.8439C4.201 17.3639 4.097 16.8437 4.04778 16.2511C3.99999 15.6756 3.99999 14.9645 4 14.0828V9.91717C3.99999 9.03554 3.99999 8.32445 4.04778 7.74893C4.097 7.15628 4.201 6.63611 4.45035 6.1561C4.82985 5.42553 5.42553 4.82985 6.1561 4.45035C6.63611 4.201 7.15628 4.097 7.74893 4.04778C8.32445 3.99999 9.03554 3.99999 9.91717 4ZM7.88135 5.64229C7.38942 5.68314 7.10722 5.75927 6.89366 5.87021C6.45532 6.09791 6.09791 6.45532 5.87021 6.89366C5.75927 7.10722 5.68314 7.38942 5.64229 7.88135C5.60064 8.38285 5.6 9.02739 5.6 9.952V14.048C5.6 14.9726 5.60064 15.6172 5.64229 16.1187C5.68314 16.6106 5.75927 16.8928 5.87021 17.1063C6.09791 17.5447 6.45532 17.9021 6.89366 18.1298C7.10722 18.2407 7.38942 18.3169 7.88135 18.3577C8.38285 18.3994 9.02739 18.4 9.952 18.4H14.048C14.9726 18.4 15.6172 18.3994 16.1187 18.3577C16.6106 18.3169 16.8928 18.2407 17.1063 18.1298C17.5447 17.9021 17.9021 17.5447 18.1298 17.1063C18.2407 16.8928 18.3169 16.6106 18.3577 16.1187C18.3994 15.6172 18.4 14.9726 18.4 14.048V9.952C18.4 9.02739 18.3994 8.38285 18.3577 7.88135C18.3169 7.38942 18.2407 7.10722 18.1298 6.89366C17.9021 6.45532 17.5447 6.09791 17.1063 5.87021C16.8928 5.75927 16.6106 5.68314 16.1187 5.64229C15.6172 5.60064 14.9726 5.6 14.048 5.6H9.952C9.02739 5.6 8.38285 5.60064 7.88135 5.64229Z" fill="#8E8E8E"/>
<path fill-rule="evenodd" clip-rule="evenodd" d="M16.0001 11.2C16.2123 11.2 16.4158 11.2843 16.5658 11.4343L19.9314 14.8L18.8 15.9314L16.0001 13.1314L11.7657 17.3657C11.6091 17.5223 11.3947 17.6069 11.1734 17.5996C10.9521 17.5922 10.7437 17.4934 10.5979 17.3268L8.36677 14.7769L5.60575 17.5943C5.29651 17.9099 4.79 17.915 4.47444 17.6058C4.15888 17.2965 4.15375 16.79 4.463 16.4744L7.82862 13.0401C7.98458 12.8809 8.19985 12.794 8.42258 12.8003C8.64531 12.8066 8.85533 12.9055 9.00206 13.0732L11.239 15.6297L15.4344 11.4343C15.5845 11.2843 15.788 11.2 16.0001 11.2Z" fill="#8E8E8E"/>
<path d="M9.6 8.4C9.6 9.06274 9.06274 9.6 8.4 9.6C7.73726 9.6 7.2 9.06274 7.2 8.4C7.2 7.73726 7.73726 7.2 8.4 7.2C9.06274 7.2 9.6 7.73726 9.6 8.4Z" fill="#8E8E8E"/>
</svg>
