<svg width="16" height="16" viewBox="0 0 16 16" fill="none" xmlns="http://www.w3.org/2000/svg">
<g clip-path="url(#clip0_3_7)">
<path d="M10.7728 0.772545C10.4604 0.460126 9.95384 0.460126 9.64142 0.772545C9.04543 1.36854 8.73367 2.14114 8.70616 2.92189L4.93156 6.19321C3.74201 6.08455 2.51468 6.48556 1.60401 7.39623C1.27858 7.72166 1.27858 8.2493 1.60401 8.57474L4.19649 11.1672L1.01472 14.349C0.819456 14.5443 0.819455 14.8608 1.01472 15.0561C1.20998 15.2514 1.52656 15.2514 1.72182 15.0561L4.9036 11.8743L7.49657 14.4673C7.82201 14.7927 8.34964 14.7927 8.67508 14.4673C9.58599 13.5564 9.98697 12.3286 9.87801 11.1388L13.1489 7.36466C13.9297 7.33715 14.7023 7.02539 15.2983 6.4294C15.6107 6.11698 15.6107 5.61045 15.2983 5.29803L10.7728 0.772545Z" fill="white" fill-opacity="0.8"/>
</g>
<defs>
<clipPath id="clip0_3_7">
<rect width="16" height="16" fill="white"/>
</clipPath>
</defs>
</svg>
