<svg width="22" height="22" viewBox="0 0 22 22" fill="none" xmlns="http://www.w3.org/2000/svg">
<g clip-path="url(#clip0_1_24)">
<path d="M21.0833 3.66667V9.16667M21.0833 9.16667H15.5833M21.0833 9.16667L16.83 5.17C15.8448 4.18432 14.626 3.46427 13.2873 3.07704C11.9485 2.68981 10.5335 2.64802 9.17426 2.95557C7.81501 3.26312 6.55582 3.90998 5.51418 4.8358C4.47254 5.76162 3.6824 6.93622 3.2175 8.25M0.916666 18.3333V12.8333M0.916666 12.8333H6.41667M0.916666 12.8333L5.17 16.83C6.15518 17.8157 7.37401 18.5357 8.71274 18.923C10.0515 19.3102 11.4665 19.352 12.8257 19.0444C14.185 18.7369 15.4442 18.09 16.4858 17.1642C17.5275 16.2384 18.3176 15.0638 18.7825 13.75" stroke="#1E1E1E" stroke-width="2" stroke-linecap="round" stroke-linejoin="round"/>
</g>
<defs>
<clipPath id="clip0_1_24">
<rect width="22" height="22" fill="white"/>
</clipPath>
</defs>
</svg>
